<?xml version="1.0" standalone="no"?>
<!DOCTYPE svg PUBLIC "-//W3C//DTD SVG 1.1//EN" "http://www.w3.org/Graphics/SVG/1.1/DTD/svg11.dtd" >
<svg xmlns="http://www.w3.org/2000/svg">
<metadata></metadata>
<defs>
<font id="wask_newbold" horiz-adv-x="379" >
<font-face units-per-em="2048" ascent="1638" descent="-410" />
<missing-glyph horiz-adv-x="500" />
<glyph horiz-adv-x="0" />
<glyph horiz-adv-x="682" />
<glyph unicode="!" horiz-adv-x="475" d="M120 94q0 46 33 79.5t80 33.5t80 -33.5t33 -79.5q0 -47 -33 -80.5t-80 -33.5t-80 33.5t-33 80.5zM120 399v1029h226v-1029h-226z" />
<glyph unicode="&#x22;" horiz-adv-x="462" d="M10 1507h199l-20 -268h-159zM253 1507h199l-20 -268h-159z" />
<glyph unicode="#" horiz-adv-x="932" d="M0 336v229h92l36 255h-128v229h160l53 380h239l-53 -380h193l53 380h239l-53 -380h101v-229h-133l-36 -255h169v-229h-201l-47 -336h-239l47 336h-193l-47 -336h-239l47 336h-60zM331 565h193l36 255h-193z" />
<glyph unicode="$" horiz-adv-x="765" d="M36 1121q0 -233 292 -511v-395q-61 33 -61 102l-230 -29q23 -271 291 -313v-66h109v65q292 43 292 334q0 261 -292 538v379q59 -30 61 -104l231 5q-1 127 -84.5 222.5t-207.5 114.5v66h-109v-64q-292 -33 -292 -344zM267 1121q0 68 61 101v-260q-61 80 -61 159zM437 211 v279q61 -84 61 -173q0 -81 -61 -106z" />
<glyph unicode="%" horiz-adv-x="1287" d="M0 1156q0 -113 80 -193t193 -80q114 0 194 80t80 193q0 114 -80 194t-194 80q-113 0 -193 -80t-80 -194zM221 1156q0 52 52 52t52 -52t-52 -52t-52 52zM338 17l390 1393h221l-390 -1393h-221zM740 273q0 -113 80 -193t193 -80q114 0 194 80t80 193q0 114 -80 194t-194 80 q-113 0 -193 -80t-80 -194zM961 273q0 52 52 52t52 -52t-52 -52t-52 52z" />
<glyph unicode="&#x26;" horiz-adv-x="1226" d="M138 301q0 -133 94 -227q95 -94 228 -94q118 0 219 75q51 38 79 76l108 -136h294l-228 285l133 114l-148 174l-128 -109l-202 253q77 36 124 107q49 73 51 161v177q0 125 -89 213q-88 89 -213 89t-214 -89q-88 -88 -88 -213v-177q2 -99 63 -178q-77 -56 -83 -195v-306z M367 301v286q0 14 4 28l244 -305q-99 -102 -155 -102q-39 0 -66 27q-27 28 -27 66zM386 986v171q0 30 22 52q21 21 52 21q30 0 52 -21q21 -22 21 -52v-171q0 -30 -21 -52q-22 -21 -52 -21q-31 0 -52 21q-22 22 -22 52z" />
<glyph unicode="'" horiz-adv-x="219" d="M10 1507h199l-20 -268h-159z" />
<glyph unicode="(" horiz-adv-x="327" d="M0 714q0 237 138 769l189 -25q-97 -562 -97 -744q0 -191 97 -745l-189 -24q-138 543 -138 769z" />
<glyph unicode=")" horiz-adv-x="327" d="M0 -31q98 554 98 745q0 182 -98 744l189 25q138 -532 138 -769q0 -226 -138 -769z" />
<glyph unicode="*" horiz-adv-x="712" d="M85 1195l146 84l-145 86l54 98l153 -84v168h118v-163l139 82l61 -101l-146 -86l146 -86l-61 -100l-139 86v-165h-118v167l-150 -84z" />
<glyph unicode="+" horiz-adv-x="844" d="M76 594v229h232v231h228v-231h232v-229h-232v-232h-228v232h-232z" />
<glyph unicode="," horiz-adv-x="483" d="M87 29v205h132q53 -2 77 -21.5t24 -62.5q0 -53 -96 -321h-76v200h-61z" />
<glyph unicode="-" horiz-adv-x="670" d="M102 532v214h486v-214h-486z" />
<glyph unicode="." horiz-adv-x="431" d="M79 115q0 56 40 95q39 40 95 40t96 -40q39 -39 39 -95t-39 -96q-40 -39 -96 -39t-95 39q-40 40 -40 96z" />
<glyph unicode="0" horiz-adv-x="799" d="M76 295q0 -134 94.5 -228.5t229.5 -94.5q134 0 228.5 94.5t94.5 228.5v852q-5 131 -98.5 222t-224.5 91q-132 0 -225.5 -91t-98.5 -222v-852zM305 295v841q0 39 28 66.5t67 27.5q38 0 66 -27.5t28 -66.5v-841q0 -38 -28 -66t-66 -28q-39 0 -67 28t-28 66z" />
<glyph unicode="1" horiz-adv-x="523" d="M85 1109q50 0 92 7v-1116h227v1428h-227q-15 -93 -92 -93v-226z" />
<glyph unicode="2" horiz-adv-x="797" d="M76 1123h229q0 110 93 110t93 -110q0 -106 -207 -412t-207 -482v-229h644v229h-399q0 120 199 425t199 469q0 338 -322 338q-156 0 -243 -102q-79 -93 -79 -236z" />
<glyph unicode="3" horiz-adv-x="795" d="M76 294q0 -133 94 -227.5t227 -94.5t227.5 94.5t94.5 227.5v331q-2 108 -68 192t-168 112l236 275v228h-643v-228h399l-320 -375q-79 -90 -79 -210h228q0 39 27.5 66t65.5 27q39 0 66.5 -27t27.5 -66v-325q0 -39 -27.5 -66.5t-66.5 -27.5q-38 0 -65.5 27.5t-27.5 66.5 h-228z" />
<glyph unicode="4" horiz-adv-x="789" d="M10 620h412v-620h226v620h95v227h-95v581h-226v-581h-106q13 45 13 92v489h-226v-489q0 -44 -35 -65.5t-58 -26.5v-227z" />
<glyph unicode="5" horiz-adv-x="793" d="M76 295q0 -134 94.5 -228.5t228.5 -94.5q133 0 227.5 94.5t94.5 228.5v333q0 135 -73.5 223t-248.5 88q-48 0 -94 -14v278h382v229h-611v-817h229q0 40 27.5 67t66.5 27q81 0 93 -94v-320q-3 -93 -93 -93q-39 0 -66.5 27t-27.5 66h-229z" />
<glyph unicode="6" horiz-adv-x="787" d="M76 289q0 -131 93 -224t225 -93q131 0 224 93t93 224v341q0 119 -75 207t-242 88q-47 0 -93 -14v203q1 28 18.5 58.5t74.5 33.5q48 0 70 -32t22 -76h225q0 138 -85.5 236t-231.5 98q-132 0 -225 -93.5t-93 -224.5v-825zM299 294v316q10 91 92 91q84 0 91 -91v-316 q-1 -28 -19 -59.5t-72 -31.5q-49 0 -70 29.5t-22 61.5z" />
<glyph unicode="7" horiz-adv-x="660" d="M10 1205h396l-321 -1205h244l321 1205v227h-640v-227z" />
<glyph unicode="8" horiz-adv-x="799" d="M76 295q0 -134 94.5 -228.5t228.5 -94.5q135 0 229.5 94.5t94.5 228.5v348q0 110 -77 200q73 86 77 197v120h-1q-9 126 -102 213t-221 87q-169 0 -246 -101t-77 -199v-120q4 -111 76 -197q-76 -90 -76 -200v-348zM305 295v339q0 41 28 67.5t66 26.5q39 0 67 -26t28 -68 v-339q0 -30 -18.5 -62t-76.5 -32q-59 0 -76.5 32t-17.5 62zM305 1052v84q1 31 20 62.5t74 31.5q59 0 77 -32t18 -62v-84q0 -34 -17.5 -64t-77.5 -30q-53 0 -72.5 28.5t-21.5 65.5z" />
<glyph unicode="9" horiz-adv-x="799" d="M76 312q0 -142 87 -241t236 -99q135 0 229.5 94.5t94.5 228.5v841q0 134 -94.5 229t-229.5 95q-134 0 -228.5 -95t-94.5 -229v-347q0 -125 74 -213t249 -88q48 0 95 13v-206q-10 -94 -95 -94q-49 0 -71.5 32.5t-22.5 78.5h-229zM305 811v325q18 94 94 94q75 0 95 -94 v-325q-16 -93 -95 -93q-85 0 -94 93z" />
<glyph unicode=":" horiz-adv-x="557" d="M158 93q0 47 33 81q34 33 81 33q48 0 81 -33q34 -34 34 -81t-34 -81q-33 -33 -81 -33q-47 0 -81 33q-33 34 -33 81zM158 818q0 47 33 81q34 33 81 33q48 0 81 -33q34 -34 34 -81t-34 -81q-33 -33 -81 -33q-47 0 -81 33q-33 34 -33 81z" />
<glyph unicode=";" horiz-adv-x="308" d="M10 706q0 46 33 78q32 33 78 33t79 -33q32 -32 32 -78t-32 -79q-33 -32 -79 -32t-78 32q-33 33 -33 79zM32 -31v-128h41v-129h89q48 186 48 189q0 62 -62 68h-116z" />
<glyph unicode="=" horiz-adv-x="844" d="M76 390v229h692v-229h-692zM76 760v229h692v-229h-692z" />
<glyph unicode="?" horiz-adv-x="748" d="M59 1138h229q0 38 27.5 65.5t65.5 27.5q39 0 66.5 -27.5t27.5 -65.5q0 -37 -25 -59q-21 -20 -115 -110.5t-94 -245.5h228q0 65 35.5 104t110.5 106q88 79 88 205q0 133 -94 227.5t-228 94.5q-133 0 -227.5 -94.5t-94.5 -227.5zM237 93q0 47 33 81q34 33 81 33 q48 0 81 -33q34 -34 34 -81t-34 -81q-33 -33 -81 -33q-47 0 -81 33q-33 34 -33 81zM241 427v296h227v-296h-227z" />
<glyph unicode="A" horiz-adv-x="796" d="M9 -2h227l61 321h194l61 -321h228l-273 1432h-226zM340 546l54 488l54 -488h-108z" />
<glyph unicode="B" horiz-adv-x="833" d="M76 -2h341q135 0 232.5 92t106.5 225l1 189q-7 126 -95 218q71 84 78 195l1 188q-7 131 -100.5 223.5t-224.5 98.5l-340 1v-1430zM303 225v374h113q47 0 80.5 -33t33.5 -80v-148q0 -47 -33.5 -80t-80.5 -33h-113zM303 826v375h97q47 0 80.5 -33.5t33.5 -80.5v-147 q0 -47 -33.5 -80.5t-80.5 -33.5h-97z" />
<glyph unicode="C" horiz-adv-x="798" d="M76 316q1 -143 102 -243.5t244 -100.5t244.5 100.5t101.5 243.5h-231q0 -48 -33.5 -81.5t-81.5 -33.5q-47 0 -81 33.5t-34 81.5v800q0 47 34 80.5t81 33.5q48 0 81.5 -33.5t33.5 -80.5h231q0 142 -101.5 243t-244.5 101t-244 -101t-102 -243v-800z" />
<glyph unicode="D" horiz-adv-x="826" d="M76 0h333q153 0 247 100t94 221v770q0 141 -89 241t-252 100h-333v-1432zM303 233v977h106q51 0 82.5 -36t31.5 -78v-772q-1 -50 -31.5 -70.5t-82.5 -20.5h-106z" />
<glyph unicode="E" horiz-adv-x="664" d="M76 0h512v226h-286v374h286v227h-286v374h286v227h-512v-1428z" />
<glyph unicode="F" horiz-adv-x="598" d="M76 0h226v600h286v227h-286v374h286v227h-512v-1428z" />
<glyph unicode="G" horiz-adv-x="841" d="M76 316q0 -143 101 -244t244 -101t243.5 101t100.5 244v514h-308v-230h79v-284q0 -115 -115 -115t-115 115v800q0 115 115 115t115 -115h229q0 143 -100.5 243.5t-243.5 100.5q-142 0 -242.5 -99t-102.5 -241v-804z" />
<glyph unicode="H" horiz-adv-x="834" d="M76 0h228v602h227v-602h227v1431h-227v-602h-227v602h-228v-1431z" />
<glyph unicode="I" d="M76 0v1429h227v-1429h-227z" />
<glyph unicode="J" horiz-adv-x="384" d="M-34 -95v-228q147 0 244 91t97 225l1 1435h-228v-1409q-17 -114 -114 -114z" />
<glyph unicode="K" horiz-adv-x="772" d="M76 0h228v601h63l168 -601h227l-230 820l199 609h-228l-195 -602h-4v602h-228v-1429z" />
<glyph unicode="L" horiz-adv-x="645" d="M76 0h559v226h-333v1202h-226v-1428z" />
<glyph unicode="M" horiz-adv-x="1265" d="M76 0h227v696l216 -696h228l215 696v-696h227v1428h-227l-329 -1063l-330 1063h-227v-1428z" />
<glyph unicode="N" horiz-adv-x="907" d="M76 0h227v815l301 -815h227v1428h-227v-815l-301 815h-227v-1428z" />
<glyph unicode="O" horiz-adv-x="842" d="M76 316q1 -143 101.5 -243.5t243.5 -100.5t244 100.5t101 243.5v799q0 143 -101 244t-244 101t-243.5 -101t-101.5 -244v-799zM306 315v800q0 48 34 81.5t81 33.5q48 0 81.5 -34t33.5 -81v-800q-1 -48 -35 -81t-80 -33q-47 0 -81 33.5t-34 80.5z" />
<glyph unicode="P" horiz-adv-x="767" d="M76 0h227v601h114q180 11 260 111.5t80 204.5v188q0 109 -86.5 216t-253.5 107h-341v-1428zM303 827v374h114q47 0 80 -33.5t33 -80.5v-147q0 -47 -33 -80t-80 -33h-114z" />
<glyph unicode="Q" horiz-adv-x="838" d="M76 321q0 -111 64 -199.5t166 -123.5q10 -134 108 -225.5t233 -91.5v229q-40 0 -71.5 25t-39.5 64q100 36 162.5 124t63.5 198v796q-1 142 -101 242t-242 100t-242.5 -100t-100.5 -242v-796zM304 321v796q1 47 34.5 80.5t80.5 33.5t80.5 -33.5t33.5 -80.5v-796 q0 -47 -33.5 -80.5t-80.5 -33.5t-80.5 33.5t-34.5 80.5z" />
<glyph unicode="R" horiz-adv-x="791" d="M76 0h227v601h68l183 -601h227l-223 642q60 15 125 83t74 192v188q-1 116 -88.5 219.5t-251.5 103.5h-341v-1428zM297 827v374h114q47 0 80 -33.5t33 -80.5v-147q0 -47 -33 -80t-80 -33h-114z" />
<glyph unicode="S" horiz-adv-x="801" d="M56 1116q0 -231 230 -452q219 -210 219 -338q0 -114 -105 -114q-114 0 -114 114l-229 -29q11 -133 110 -229t233 -96q144 0 244.5 100t100.5 246q0 253 -230 466q-219 224 -219 332q0 95 104 114q112 0 115 -114l230 4q-2 141 -102.5 240.5t-242.5 99.5 q-326 -1 -344 -344z" />
<glyph unicode="T" horiz-adv-x="755" d="M40 1201h227v-1201h227v1201h227v227h-681v-227z" />
<glyph unicode="U" horiz-adv-x="839" d="M76 315q0 -134 91.5 -238.5t251.5 -104.5q176 0 260 106t84 237v1115h-229v-1115q-5 -110 -115 -114q-102 0 -114 114v1115h-229v-1115z" />
<glyph unicode="V" horiz-adv-x="787" d="M10 1426l271 -1426h227l269 1426h-226l-157 -833l-158 833h-226z" />
<glyph unicode="W" horiz-adv-x="1326" d="M10 1428l272 -1428h226l157 824l157 -824h225l272 1428h-227l-157 -834l-157 829h-227l-157 -829l-157 834h-227z" />
<glyph unicode="X" horiz-adv-x="701" d="M10 0h227l113 437l114 -437h227l-227 714l227 714h-227l-114 -437l-113 437h-227l227 -714z" />
<glyph unicode="Y" horiz-adv-x="702" d="M10 1428l227 -833v-595h228v595l227 833h-227l-114 -497l-114 497h-227z" />
<glyph unicode="Z" horiz-adv-x="632" d="M76 0h510v227h-257l257 974v227h-510v-227h257l-257 -974v-227z" />
<glyph unicode="[" horiz-adv-x="428" d="M76 -70v1578h227v-2h110v-227h-110l1 -1131l114 -1l-1 -217h-341z" />
<glyph unicode="]" horiz-adv-x="428" d="M10 147l115 1v1131h-110v227h110v2h227v-1578h-340z" />
<glyph unicode="_" horiz-adv-x="865" d="M10 0h845v-227h-845v227z" />
<glyph unicode="a" horiz-adv-x="770" d="M51 219q39 -137 164 -205q79 -43 164 -42q49 0 99 14l111 38q96 -35 141 -35l30 230q-70 0 -74 74v522q0 128 -79.5 217.5t-227.5 89.5q-127 0 -216.5 -88.5t-90.5 -215.5v-25l230 22q0 32 22 54.5t55 22.5q48 0 62.5 -29.5t14.5 -49.5q-2 -33 -37.5 -79.5t-133.5 -87.5 q-149 -64 -212 -178q-38 -69 -38 -145q0 -50 16 -104zM270 284q-5 21 -4 39q0 42 23 69q14 18 76 51t91 78v-303q-46 -16 -82 -16q-79 0 -104 82z" />
<glyph unicode="b" horiz-adv-x="792" d="M76 -10h213q53 -18 109 -18q133 0 227.5 94t94.5 228v496q0 133 -94.5 227.5t-227.5 94.5q-48 0 -94 -14v330h-228v-1438zM304 294v496q18 94 94 94q38 0 66 -27.5t28 -66.5v-496q0 -39 -28 -66.5t-66 -27.5q-63 0 -78 35.5t-16 58.5z" />
<glyph unicode="c" horiz-adv-x="743" d="M76 296q0 -134 95 -229t230 -95q134 0 229 95t95 229v20h-230v-20q0 -39 -28 -66t-66 -27q-81 0 -94 93v502q7 94 94 94q38 0 66 -27.5t28 -66.5v-5h230v5q0 135 -95 229.5t-229 94.5q-135 0 -230 -94.5t-95 -229.5v-502z" />
<glyph unicode="d" horiz-adv-x="830" d="M81 294q0 -134 94 -228t228 -94q55 0 107 18h215v1438h-229v-330q-46 14 -93 14q-134 0 -228 -94.5t-94 -227.5v-496zM309 294v496q0 39 27.5 66.5t66.5 27.5q76 0 93 -94v-496q-1 -23 -15.5 -58.5t-77.5 -35.5q-39 0 -66.5 27.5t-27.5 66.5z" />
<glyph unicode="e" horiz-adv-x="800" d="M76 295q0 -133 95 -228t229 -95t229 95t95 228v21h-230v-21q0 -38 -27.5 -65.5t-66.5 -27.5q-53 0 -73 27.5t-21 65.5v137h418v365q0 134 -95 228.5t-229 94.5t-229 -94.5t-95 -228.5v-502zM306 663v134q0 38 27.5 66t66.5 28t66.5 -28t27.5 -66v-134h-188z" />
<glyph unicode="f" horiz-adv-x="505" d="M41 870h89v-870h228v870h93v227h-93v15q0 38 27 65.5t66 27.5v227q-165 0 -241.5 -91.5t-79.5 -221.5v-22h-89v-227z" />
<glyph unicode="g" horiz-adv-x="815" d="M76 -25q0 -124 97 -211.5t234 -87.5t234 87.5t97 211.5t-97 211.5t-234 87.5q-33 4 -33 32q0 21 12.5 27t20.5 6q139 6 216 82t87 215v178q0 94 -52 171q81 87 81 154l-229 30q0 -8 -22 -29.5t-52 -21.5h-29q-126 0 -215 -89t-89 -215v-178q9 -164 78 -197 q-36 -61 -36 -133q0 -63 28 -119q-97 -88 -97 -212zM305 -25q0 26 29.5 47.5t72.5 21.5t72 -21.5t29 -47.5t-29 -47.5t-72 -21.5t-72.5 21.5t-29.5 47.5zM333 642v172q0 31 21.5 52.5t52.5 21.5q30 0 52 -21.5t22 -52.5v-172q0 -30 -22 -52t-52 -22q-31 0 -52.5 22t-21.5 52 z" />
<glyph unicode="h" horiz-adv-x="795" d="M76 0h228v800q0 40 24.5 66.5t69.5 26.5q83 0 93 -93v-800h228v800q0 133 -94 227t-227 94q-48 0 -94 -14v322h-228v-1429z" />
<glyph unicode="i" d="M76 0h227v1093h-227v-1093zM76 1315q0 47 33 80t80 33t80.5 -33t33.5 -80t-33.5 -80.5t-80.5 -33.5t-80 33.5t-33 80.5z" />
<glyph unicode="j" horiz-adv-x="357" d="M-28 -82v-224q153 0 235 78t82 232v1089h-225v-1083q0 -23 -17.5 -57.5t-74.5 -34.5zM64 1314q0 47 33 80.5t81 33.5q47 0 80 -33.5t33 -80.5t-33 -80.5t-80 -33.5q-48 0 -81 33.5t-33 80.5z" />
<glyph unicode="k" horiz-adv-x="729" d="M77 0h227v522h69l117 -522h227l-169 750l172 344h-244l-172 -345v679h-227v-1428z" />
<glyph unicode="l" d="M76 0h227v1428h-227v-1428z" />
<glyph unicode="m" horiz-adv-x="1205" d="M76 0h227v796q14 93 93 93q80 0 93 -93v-796h227v796q0 39 27.5 66t65.5 27t65.5 -27t27.5 -66v-796h227v796q0 133 -94 227q-94 93 -226 93q-117 0 -206 -75q-90 75 -207 75q-58 0 -111 -20h-209v-1096z" />
<glyph unicode="n" horiz-adv-x="792" d="M76 0h227v796q12 93 94 93q83 0 93 -93v-796h227v796q0 133 -94 226.5t-226 93.5q-59 0 -112 -20h-209v-1096z" />
<glyph unicode="o" horiz-adv-x="801" d="M76 297q0 -135 95.5 -230t229.5 -95t229 95t95 230v500q0 135 -95 230t-229 95t-229.5 -95t-95.5 -230v-500zM306 297v500q14 95 95 95q80 0 94 -95v-500q-9 -95 -94 -95q-81 0 -95 95z" />
<glyph unicode="p" horiz-adv-x="801" d="M76 -315h230v300q47 -14 95 -14q134 0 229 95.5t95 229.5v500q0 135 -95 230t-229 95q-59 0 -113 -20h-212v-1416zM306 296v500q19 95 95 95q86 0 94 -95v-500q-11 -95 -94 -95q-86 0 -95 95z" />
<glyph unicode="q" horiz-adv-x="801" d="M76 296q0 -134 95 -229.5t230 -95.5q47 0 94 14v-300h230v1416h-212q-54 20 -112 20q-135 0 -230 -95t-95 -230v-500zM306 296v500q8 95 95 95q75 0 94 -95v-500q-9 -95 -94 -95q-84 0 -95 95z" />
<glyph unicode="r" horiz-adv-x="443" d="M76 0h228v799q0 38 27.5 65.5t65.5 27.5v228q-59 0 -112 -20h-209v-1100z" />
<glyph unicode="s" horiz-adv-x="750" d="M45 298q0 -135 95.5 -230.5t230.5 -95.5q136 0 235 95.5t99 230.5q0 99 -91.5 200.5t-237.5 200.5q-88 53 -88 117q0 40 25 57.5t58 17.5q37 0 60 -27t23 -68l232 20q0 117 -90.5 211.5t-224.5 94.5q-138 0 -222.5 -83.5t-84.5 -222.5q0 -101 58.5 -188.5t166.5 -158.5 q101 -73 137 -109.5t39 -61.5q0 -40 -28 -67.5t-66 -27.5q-40 0 -67 27.5t-27 67.5q0 10 2 20z" />
<glyph unicode="t" horiz-adv-x="496" d="M54 863h91v-575q3 -316 322 -316v228q-85 0 -94 94v569h92v228h-92v337h-228v-337h-91v-228z" />
<glyph unicode="u" horiz-adv-x="795" d="M76 294q0 -133 94 -227.5t228 -94.5q133 0 227 94.5t94 227.5v799h-229v-799q-11 -93 -92 -93q-84 0 -94 93v799h-228v-799z" />
<glyph unicode="v" horiz-adv-x="669" d="M10 1094l206 -1094h237l206 1094h-226l-98 -669l-98 669h-227z" />
<glyph unicode="w" horiz-adv-x="1093" d="M10 1094l206 -1094h238l93 644l93 -644h237l206 1094h-227l-98 -669l-99 669h-226l-98 -669l-98 669h-227z" />
<glyph unicode="x" horiz-adv-x="759" d="M10 0h277l92 326l93 -326h277l-236 547l236 547h-277l-93 -326l-92 326h-277l236 -547z" />
<glyph unicode="y" horiz-adv-x="713" d="M10 1094l244 -1080l-57 -315h225l281 1395h-255l-87 -635l-96 635h-255z" />
<glyph unicode="z" horiz-adv-x="661" d="M76 0h509v227h-266l266 640v227h-509v-227h266l-266 -640v-227z" />
<glyph unicode="~" horiz-adv-x="400" d="M0 623h100l1 15q3 43 17 43q12 0 59 -27v-1q66 -36 108 -36q49 0 82 34.5t29 117.5v16h-100l-1 -16q-2 -42 -12 -42q-12 0 -59 26q-65 36 -108 36q-48 0 -82 -34t-34 -116v-16z" />
<glyph unicode="&#xa1;" horiz-adv-x="475" d="M120 -329v1029h226v-1029h-226zM120 1005q0 47 33 80.5t80 33.5t80 -33.5t33 -80.5q0 -46 -33 -79.5t-80 -33.5t-80 33.5t-33 79.5z" />
<glyph unicode="&#xab;" horiz-adv-x="566" d="M-40 539l171 -567h198l-170 563l163 585h-197zM217 539l171 -567h198l-170 563l163 585h-197z" />
<glyph unicode="&#xad;" horiz-adv-x="670" d="M102 532v214h486v-214h-486z" />
<glyph unicode="&#xb5;" horiz-adv-x="789" d="M76 -312l226 30v275q45 -14 93 -14q61 0 118 23h200v1091h-226v-795q0 -93 -92 -93q-93 0 -93 93v795h-226v-1405z" />
<glyph unicode="&#xb7;" horiz-adv-x="508" d="M154 706q0 46 33 78q32 33 78 33t79 -33q32 -32 32 -78t-32 -79q-33 -32 -79 -32t-78 32q-33 33 -33 79z" />
<glyph unicode="&#xbb;" horiz-adv-x="566" d="M-40 -28h198l171 567l-165 581h-197l163 -585zM217 -28h198l171 567l-165 581h-197l163 -585z" />
<glyph unicode="&#xbf;" horiz-adv-x="748" d="M59 -37q0 -133 94.5 -227.5t227.5 -94.5q134 0 228 94.5t94 227.5q0 126 -88 205q-75 67 -110.5 106t-35.5 104h-228q0 -155 94 -245.5t115 -110.5q25 -22 25 -59q0 -38 -27.5 -65.5t-66.5 -27.5q-38 0 -65.5 27.5t-27.5 65.5h-229zM237 1008q0 47 33 81q34 33 81 33 q48 0 81 -33q34 -34 34 -81t-34 -81q-33 -33 -81 -33q-47 0 -81 33q-33 34 -33 81zM241 378v296h227v-296h-227z" />
<glyph unicode="&#xc0;" horiz-adv-x="796" d="M9 -2h227l61 321h194l61 -321h228l-273 1432h-226zM180 1635l140 140l126 -183l-83 -84zM340 546l54 488l54 -488h-108z" />
<glyph unicode="&#xc1;" horiz-adv-x="796" d="M9 -2h227l61 321h194l61 -321h228l-273 1432h-226zM260 1592l127 183l139 -140l-183 -127zM340 546l54 488l54 -488h-108z" />
<glyph unicode="&#xc2;" horiz-adv-x="796" d="M9 -2h227l61 321h194l61 -321h228l-273 1432h-226zM163 1508h150l82 73l81 -73h150l-153 217h-157zM341 546l54 488l54 -488h-108z" />
<glyph unicode="&#xc3;" horiz-adv-x="796" d="M9 -2h227l61 321h194l61 -321h228l-273 1432h-226zM196 1513h100l1 15q3 43 17 43q12 0 59 -27v-1q66 -36 108 -36q49 0 82 34.5t29 117.5v16h-100l-1 -16q-2 -42 -12 -42q-12 0 -59 26q-65 36 -108 36q-48 0 -82 -34t-34 -116v-16zM341 546l54 488l54 -488h-108z" />
<glyph unicode="&#xc4;" horiz-adv-x="796" d="M9 -2h227l61 321h194l61 -321h228l-273 1432h-226zM56 1620q0 114 113 114t113 -114q0 -113 -113 -113t-113 113zM340 546l54 488l54 -488h-108zM509 1620q0 114 113 114t113 -114q0 -113 -113 -113t-113 113z" />
<glyph unicode="&#xc5;" horiz-adv-x="765" d="M0 0h224l43 224h227l43 -224h224l-267 1411q72 56 72 146q0 77 -55 131q-54 54 -131 54q-76 0 -130 -54q-55 -54 -55 -131q0 -90 72 -146zM299 1561q0 82 81 82q83 0 83 -82t-83 -82q-81 0 -81 82zM309 449l71 455l72 -455h-143z" />
<glyph unicode="&#xc6;" horiz-adv-x="943" d="M0 0h227l43 227h114v-227h513v227h-286v374h286v226h-286v374h286v227h-627zM313 454l71 460v-460h-71z" />
<glyph unicode="&#xc7;" horiz-adv-x="803" d="M76 316q1 -143 83.5 -225t163.5 -106v-138q73 0 73 -18q0 -17 -73 -17v-115q198 0 198 132q0 69 -83 108v35q133 6 231.5 103.5t98.5 240.5h-231q0 -48 -33.5 -81.5t-81.5 -33.5q-47 0 -81 33.5t-34 81.5v800q0 47 34 80.5t81 33.5q48 0 81.5 -33.5t33.5 -80.5h231 q0 142 -101.5 243t-244.5 101t-244 -101t-102 -243v-800z" />
<glyph unicode="&#xc8;" horiz-adv-x="664" d="M76 0h512v226h-286v374h286v227h-286v374h286v227h-512v-1428zM180 1633l140 140l126 -183l-83 -84z" />
<glyph unicode="&#xc9;" horiz-adv-x="664" d="M76 0h512v226h-286v374h286v227h-286v374h286v227h-512v-1428zM200 1590l127 183l139 -140l-183 -127z" />
<glyph unicode="&#xca;" horiz-adv-x="664" d="M76 0h512v226h-286v374h286v227h-286v374h286v227h-512v-1428zM104 1507h149l82 73l82 -73h149l-153 217h-156z" />
<glyph unicode="&#xcb;" horiz-adv-x="664" d="M46 1620q0 114 113 114t113 -114q0 -113 -113 -113t-113 113zM76 0h512v226h-286v374h286v227h-286v374h286v227h-512v-1428zM399 1620q0 114 113 114t113 -114q0 -113 -113 -113t-113 113z" />
<glyph unicode="&#xcc;" d="M-5 1633l140 140l126 -183l-83 -84zM76 0v1429h227v-1429h-227z" />
<glyph unicode="&#xcd;" d="M65 1590l127 183l139 -140l-183 -127zM76 0v1429h227v-1429h-227z" />
<glyph unicode="&#xce;" d="M-46 1507h149l82 73l82 -73h149l-153 217h-156zM76 0v1429h227v-1429h-227z" />
<glyph unicode="&#xcf;" d="M-154 1619q0 114 113 114t113 -114q0 -113 -113 -113t-113 113zM76 0v1429h227v-1429h-227zM299 1619q0 114 113 114t113 -114q0 -113 -113 -113t-113 113z" />
<glyph unicode="&#xd0;" horiz-adv-x="929" d="M0 657h181v-657h332q212 0 297 160q43 80 43 160v768q0 141 -100 240q-100 100 -240 100h-332v-658h-181v-113zM407 226v431h164v113h-164v431h106q112 -5 113 -113v-748q-9 -113 -113 -114h-106z" />
<glyph unicode="&#xd1;" horiz-adv-x="907" d="M76 0h227v815l301 -815h227v1428h-227v-815l-301 815h-227v-1428zM255 1513h100l1 15q3 43 17 43q12 0 59 -27v-1q66 -36 108 -36q49 0 82 34.5t29 117.5v16h-100l-1 -16q-2 -42 -12 -42q-12 0 -59 26q-65 36 -108 36q-48 0 -82 -34t-34 -116v-16z" />
<glyph unicode="&#xd2;" horiz-adv-x="842" d="M76 316q1 -143 101.5 -243.5t243.5 -100.5t244 100.5t101 243.5v799q0 143 -101 244t-244 101t-243.5 -101t-101.5 -244v-799zM228 1633l140 140l126 -183l-83 -84zM306 315v800q0 48 34 81.5t81 33.5q48 0 81.5 -34t33.5 -81v-800q-1 -48 -35 -81t-80 -33 q-47 0 -81 33.5t-34 80.5z" />
<glyph unicode="&#xd3;" horiz-adv-x="842" d="M76 316q1 -143 101.5 -243.5t243.5 -100.5t244 100.5t101 243.5v799q0 143 -101 244t-244 101t-243.5 -101t-101.5 -244v-799zM306 315v800q0 48 34 81.5t81 33.5q48 0 81.5 -34t33.5 -81v-800q-1 -48 -35 -81t-80 -33q-47 0 -81 33.5t-34 80.5zM318 1590l127 183 l139 -140l-183 -127z" />
<glyph unicode="&#xd4;" horiz-adv-x="842" d="M76 316q1 -143 101.5 -243.5t243.5 -100.5t244 100.5t101 243.5v799q0 143 -101 244t-244 101t-243.5 -101t-101.5 -244v-799zM194 1507h149l82 73l82 -73h149l-153 217h-156zM306 315v800q0 48 34 81.5t81 33.5q48 0 81.5 -34t33.5 -81v-800q-1 -48 -35 -81t-80 -33 q-47 0 -81 33.5t-34 80.5z" />
<glyph unicode="&#xd5;" horiz-adv-x="842" d="M76 316q1 -143 101.5 -243.5t243.5 -100.5t244 100.5t101 243.5v799q0 143 -101 244t-244 101t-243.5 -101t-101.5 -244v-799zM223 1513h100l1 15q3 43 17 43q11 0 58 -27l1 -1q65 -36 108 -36q48 0 81 34.5t30 117.5l-1 16h-99l-1 -16q-2 -42 -13 -42q-12 0 -59 26 q-64 36 -108 36q-48 0 -82 -34t-33 -116v-16zM306 315v800q0 48 34 81.5t81 33.5q48 0 81.5 -34t33.5 -81v-800q-1 -48 -35 -81t-80 -33q-47 0 -81 33.5t-34 80.5z" />
<glyph unicode="&#xd6;" horiz-adv-x="842" d="M76 316q1 -143 101.5 -243.5t243.5 -100.5t244 100.5t101 243.5v799q0 143 -101 244t-244 101t-243.5 -101t-101.5 -244v-799zM84 1620q0 114 113 114t113 -114q0 -113 -113 -113t-113 113zM306 315v800q0 48 34 81.5t81 33.5q48 0 81.5 -34t33.5 -81v-800 q-1 -48 -35 -81t-80 -33q-47 0 -81 33.5t-34 80.5zM537 1620q0 114 113 114t113 -114q0 -113 -113 -113t-113 113z" />
<glyph unicode="&#xd7;" horiz-adv-x="846" d="M78 486l158 122l-158 122l140 181l206 -159l206 159l140 -181l-158 -122l158 -122l-140 -182l-206 159l-206 -159z" />
<glyph unicode="&#xd8;" horiz-adv-x="842" d="M76 317q0 -117 71 -209l-30 -86l108 -38l14 40q84 -52 182 -52q143 0 244 101t101 244v800q0 117 -71 209l30 86l-108 38l-14 -40q-84 52 -182 52q-143 0 -244 -101t-101 -244v-800zM306 563v554q1 115 115 115q71 0 100 -56zM322 259l214 612v-554q-4 -115 -115 -115 q-66 0 -99 57z" />
<glyph unicode="&#xd9;" horiz-adv-x="839" d="M76 315q0 -134 91.5 -238.5t251.5 -104.5q176 0 260 106t84 237v1115h-229v-1115q-5 -110 -115 -114q-102 0 -114 114v1115h-229v-1115zM240 1633l140 140l126 -183l-83 -84z" />
<glyph unicode="&#xda;" horiz-adv-x="839" d="M76 315q0 -134 91.5 -238.5t251.5 -104.5q176 0 260 106t84 237v1115h-229v-1115q-5 -110 -115 -114q-102 0 -114 114v1115h-229v-1115zM310 1590l127 183l139 -140l-183 -127z" />
<glyph unicode="&#xdb;" horiz-adv-x="839" d="M76 315q0 -134 91.5 -238.5t251.5 -104.5q176 0 260 106t84 237v1115h-229v-1115q-5 -110 -115 -114q-102 0 -114 114v1115h-229v-1115zM184 1507h149l82 73l82 -73h149l-153 217h-156z" />
<glyph unicode="&#xdc;" horiz-adv-x="839" d="M76 315q0 -134 91.5 -238.5t251.5 -104.5q176 0 260 106t84 237v1115h-229v-1115q-5 -110 -115 -114q-102 0 -114 114v1115h-229v-1115zM76 1619q0 114 113 114t113 -114q0 -113 -113 -113t-113 113zM529 1619q0 114 113 114t113 -114q0 -113 -113 -113t-113 113z" />
<glyph unicode="&#xdd;" horiz-adv-x="702" d="M10 1428l227 -833v-595h228v595l227 833h-227l-114 -497l-114 497h-227zM280 1590l127 183l139 -140l-183 -127z" />
<glyph unicode="&#xde;" horiz-adv-x="897" d="M76 0h226v225h267q132 0 225 93.5t93 225.5v307q0 132 -93 225.5t-225 93.5h-267v255h-226v-1425zM302 451v493h267q92 0 92 -93v-307q0 -93 -92 -93h-267z" />
<glyph unicode="&#xdf;" horiz-adv-x="1012" d="M76 -309h230v1443q0 94 93 94q94 0 94 -94v-144q0 -93 -94 -93v-230h243q94 0 94 -94v-280q0 -93 -94 -93t-94 93h-229q0 -133 94.5 -228t228.5 -95t229 95t95 228v280q0 265 -259 317l16 100v144q0 134 -95 228.5t-229 94.5q-133 0 -228 -93t-95 -225v-1448z" />
<glyph unicode="&#xe0;" horiz-adv-x="770" d="M51 219q39 -137 164 -204.5t263 -28.5l111 38q96 -35 141 -35l30 230q-70 0 -74 74v522q0 128 -79.5 217.5t-227.5 89.5q-127 0 -216.5 -88.5t-90.5 -215.5v-25l230 22q0 32 22 54.5t55 22.5q48 0 62.5 -29.5t14.5 -49.5q-2 -33 -37.5 -79.5t-133.5 -87.5 q-149 -64 -212 -177.5t-22 -249.5zM180 1295l140 140l126 -183l-83 -84zM270 284q-15 69 19 108q14 18 76 51t91 78v-303q-150 -53 -186 66z" />
<glyph unicode="&#xe1;" horiz-adv-x="770" d="M51 219q39 -137 164 -204.5t263 -28.5l111 38q96 -35 141 -35l30 230q-70 0 -74 74v522q0 128 -79.5 217.5t-227.5 89.5q-127 0 -216.5 -88.5t-90.5 -215.5v-25l230 22q0 32 22 54.5t55 22.5q48 0 62.5 -29.5t14.5 -49.5q-2 -33 -37.5 -79.5t-133.5 -87.5 q-149 -64 -212 -177.5t-22 -249.5zM250 1252l127 183l139 -140l-183 -127zM270 284q-15 69 19 108q14 18 76 51t91 78v-303q-150 -53 -186 66z" />
<glyph unicode="&#xe2;" horiz-adv-x="770" d="M51 219q39 -137 164 -204.5t263 -28.5l111 38q96 -35 141 -35l30 230q-70 0 -74 74v522q0 128 -79.5 217.5t-227.5 89.5q-127 0 -216.5 -88.5t-90.5 -215.5v-25l230 22q0 32 22 54.5t55 22.5q48 0 62.5 -29.5t14.5 -49.5q-2 -33 -37.5 -79.5t-133.5 -87.5 q-149 -64 -212 -177.5t-22 -249.5zM163 1169h150l82 73l81 -73h150l-153 217h-157zM270 284q-15 69 19 108q14 18 76 51t91 78v-303q-150 -53 -186 66z" />
<glyph unicode="&#xe3;" horiz-adv-x="770" d="M51 219q39 -137 164 -204.5t263 -28.5l111 38q96 -35 141 -35l30 230q-70 0 -74 74v522q0 128 -79.5 217.5t-227.5 89.5q-127 0 -216.5 -88.5t-90.5 -215.5v-25l230 22q0 32 22 54.5t55 22.5q48 0 62.5 -29.5t14.5 -49.5q-2 -33 -37.5 -79.5t-133.5 -87.5 q-149 -64 -212 -177.5t-22 -249.5zM182 1174h100l1 15q3 43 17 43q12 0 59 -27v-1q66 -36 108 -36q49 0 82 34.5t29 117.5v16h-100l-1 -16q-2 -42 -12 -42q-12 0 -59 26q-65 36 -108 36q-48 0 -82 -34t-34 -116v-16zM270 284q-15 69 19 108q14 18 76 51t91 78v-303 q-150 -53 -186 66z" />
<glyph unicode="&#xe4;" horiz-adv-x="770" d="M51 219q39 -137 164 -204.5t263 -28.5l111 38q96 -35 141 -35l30 230q-70 0 -74 74v522q0 128 -79.5 217.5t-227.5 89.5q-127 0 -216.5 -88.5t-90.5 -215.5v-25l230 22q0 32 22 54.5t55 22.5q48 0 62.5 -29.5t14.5 -49.5q-2 -33 -37.5 -79.5t-133.5 -87.5 q-149 -64 -212 -177.5t-22 -249.5zM95 1282q0 114 113 114t113 -114q0 -113 -113 -113t-113 113zM270 284q-15 69 19 108q14 18 76 51t91 78v-303q-150 -53 -186 66zM458 1282q0 114 113 114t113 -114q0 -113 -113 -113t-113 113z" />
<glyph unicode="&#xe5;" horiz-adv-x="770" d="M51 219q39 -137 164 -204.5t263 -28.5l111 38q96 -35 141 -35l30 230q-70 0 -74 74v522q0 128 -79.5 217.5t-227.5 89.5q-127 0 -216.5 -88.5t-90.5 -215.5v-25l230 22q0 32 22 54.5t55 22.5q48 0 62.5 -29.5t14.5 -49.5q-2 -33 -37.5 -79.5t-133.5 -87.5 q-149 -64 -212 -177.5t-22 -249.5zM206 1351q0 -75 53 -129q54 -53 129 -53q76 0 129 53q54 54 54 129q0 76 -54 129q-53 54 -129 54q-75 0 -129 -54q-53 -53 -53 -129zM270 284q-15 69 19 108q14 18 76 51t91 78v-303q-150 -53 -186 66zM305 1352q0 83 84 83q83 0 83 -83 q0 -84 -83 -84q-84 0 -84 84z" />
<glyph unicode="&#xe6;" horiz-adv-x="1172" d="M44 219q39 -137 164 -204.5t263 -28.5l111 38q16 -6 58.5 -29t131.5 -23q134 0 229 95t95 228l-230 21v-21q0 -38 -27.5 -65.5t-66.5 -27.5q-34 0 -61.5 21t-31.5 70v139h417v365q0 134 -95 228.5t-229 94.5q-111 0 -195 -65q-77 67 -205 67q-127 0 -216.5 -88.5 t-90.5 -240.5l230 22q0 32 22 54.5t55 22.5q48 0 61.5 -24.5t15.5 -48.5q-1 -7 -3.5 -25.5t-36 -62.5t-131.5 -85q-149 -64 -212 -177.5t-22 -249.5zM263 284q-15 69 19 108q14 18 76 51t91 78v-303q-150 -53 -186 66zM678 663v134q0 38 27.5 66t66.5 28t66.5 -28t27.5 -66 v-134h-188z" />
<glyph unicode="&#xe7;" horiz-adv-x="765" d="M76 288q0 -238 227 -311v-120q73 0 73 -18q0 -17 -73 -17v-116q200 0 200 133q0 69 -84 109v14q130 6 220 100.5t90 225.5v20h-232v-20q0 -95 -94 -95q-86 0 -95 95v505q0 95 95 95q94 0 94 -95v-5h232v5q0 135 -95.5 231t-230.5 96q-136 0 -231.5 -96t-95.5 -231v-505z " />
<glyph unicode="&#xe8;" horiz-adv-x="800" d="M76 295q0 -133 95 -228t229 -95t229 95t95 228v21h-230v-21q0 -38 -27.5 -65.5t-66.5 -27.5q-53 0 -73 27.5t-21 65.5v137h418v365q0 134 -95 228.5t-229 94.5t-229 -94.5t-95 -228.5v-502zM230 1295l140 140l126 -183l-83 -84zM306 663v134q0 38 27.5 66t66.5 28 t66.5 -28t27.5 -66v-134h-188z" />
<glyph unicode="&#xe9;" horiz-adv-x="800" d="M76 295q0 -133 95 -228t229 -95t229 95t95 228v21h-230v-21q0 -38 -27.5 -65.5t-66.5 -27.5q-53 0 -73 27.5t-21 65.5v137h418v365q0 134 -95 228.5t-229 94.5t-229 -94.5t-95 -228.5v-502zM280 1252l127 183l139 -140l-183 -127zM306 663v134q0 38 27.5 66t66.5 28 t66.5 -28t27.5 -66v-134h-188z" />
<glyph unicode="&#xea;" horiz-adv-x="800" d="M76 295q0 -133 95 -228t229 -95t229 95t95 228v21h-230v-21q0 -38 -27.5 -65.5t-66.5 -27.5q-53 0 -73 27.5t-21 65.5v137h418v365q0 134 -95 228.5t-229 94.5t-229 -94.5t-95 -228.5v-502zM169 1169h149l82 73l82 -73h149l-153 217h-156zM306 663v134q0 38 27.5 66 t66.5 28t66.5 -28t27.5 -66v-134h-188z" />
<glyph unicode="&#xeb;" horiz-adv-x="800" d="M76 295q0 -133 95 -228t229 -95t229 95t95 228v21h-230v-21q0 -38 -27.5 -65.5t-66.5 -27.5q-53 0 -73 27.5t-21 65.5v137h418v365q0 134 -95 228.5t-229 94.5t-229 -94.5t-95 -228.5v-502zM115 1282q0 114 113 114t113 -114q0 -113 -113 -113t-113 113zM306 663v134 q0 38 27.5 66t66.5 28t66.5 -28t27.5 -66v-134h-188zM478 1282q0 114 113 114t113 -114q0 -113 -113 -113t-113 113z" />
<glyph unicode="&#xec;" d="M25 1296l140 140l126 -183l-83 -84zM76 0h227v1093h-227v-1093z" />
<glyph unicode="&#xed;" d="M75 1253l127 183l139 -140l-183 -127zM76 0h227v1093h-227v-1093z" />
<glyph unicode="&#xee;" horiz-adv-x="383" d="M-40 1169h150l81 73l82 -73h150l-154 217h-156zM78 0h227v1093h-227v-1093z" />
<glyph unicode="&#xef;" d="M-95 1282q0 114 113 114t113 -114q0 -113 -113 -113t-113 113zM76 0h227v1093h-227v-1093zM268 1282q0 114 113 114t113 -114q0 -113 -113 -113t-113 113z" />
<glyph unicode="&#xf0;" horiz-adv-x="846" d="M76 294q0 -134 95 -228q94 -95 228 -95q56 0 109 27h214v1187h114v114h-114v135h-229v-135h-191v-114h191v-82q-46 13 -94 13q-134 0 -228 -94q-95 -95 -95 -229v-499zM305 294v499q2 94 94 94q94 0 94 -94v-499q0 -94 -94 -94t-94 94z" />
<glyph unicode="&#xf1;" horiz-adv-x="792" d="M76 0h227v796q12 93 94 93q83 0 93 -93v-796h227v796q0 133 -94 226.5t-226 93.5q-59 0 -112 -20h-209v-1096zM174 1175q-1 165 123 165q48 0 124 -43q63 -34 84 -34q32 0 36 72h84q7 -168 -118 -168q-47 0 -124 43q-62 37 -83 37q-38 0 -42 -72h-84z" />
<glyph unicode="&#xf2;" horiz-adv-x="801" d="M76 297q0 -135 95.5 -230t229.5 -95t229 95t95 230v500q0 135 -95 230t-229 95t-229.5 -95t-95.5 -230v-500zM219 1296l140 140l126 -183l-83 -84zM306 297v500q14 95 95 95q80 0 94 -95v-500q-9 -95 -94 -95q-81 0 -95 95z" />
<glyph unicode="&#xf3;" horiz-adv-x="801" d="M76 297q0 -135 95.5 -230t229.5 -95t229 95t95 230v500q0 135 -95 230t-229 95t-229.5 -95t-95.5 -230v-500zM287 1253l127 183l139 -140l-183 -127zM306 297v500q14 95 95 95q80 0 94 -95v-500q-9 -95 -94 -95q-81 0 -95 95z" />
<glyph unicode="&#xf4;" horiz-adv-x="801" d="M76 297q0 -135 95.5 -230t229.5 -95t229 95t95 230v500q0 135 -95 230t-229 95t-229.5 -95t-95.5 -230v-500zM169 1169h150l82 73l81 -73h150l-153 217h-157zM306 297v500q14 95 95 95q80 0 94 -95v-500q-9 -95 -94 -95q-81 0 -95 95z" />
<glyph unicode="&#xf5;" horiz-adv-x="801" d="M76 297q0 -135 95.5 -230t229.5 -95t229 95t95 230v500q0 135 -95 230t-229 95t-229.5 -95t-95.5 -230v-500zM202 1174h100l1 15q3 43 17 43q12 0 59 -27v-1q66 -36 108 -36q49 0 82 34.5t29 117.5v16h-100l-1 -16q-2 -42 -12 -42q-12 0 -59 26q-65 36 -108 36 q-48 0 -82 -34t-34 -116v-16zM306 297v500q14 95 95 95q80 0 94 -95v-500q-9 -95 -94 -95q-81 0 -95 95z" />
<glyph unicode="&#xf6;" horiz-adv-x="801" d="M76 297q0 -135 95.5 -230t229.5 -95t229 95t95 230v500q0 135 -95 230t-229 95t-229.5 -95t-95.5 -230v-500zM108 1282q0 114 113 114t113 -114q0 -113 -113 -113t-113 113zM306 297v500q14 95 95 95q80 0 94 -95v-500q-9 -95 -94 -95q-81 0 -95 95zM471 1282 q0 114 113 114t113 -114q0 -113 -113 -113t-113 113z" />
<glyph unicode="&#xf7;" horiz-adv-x="844" d="M76 529v229h692v-229h-692zM307 351q0 47 33 81q34 33 81 33q48 0 81 -33q34 -34 34 -81t-34 -81q-33 -33 -81 -33q-47 0 -81 33q-33 34 -33 81zM307 934q0 47 33 81q34 33 81 33q48 0 81 -33q34 -34 34 -81t-34 -81q-33 -33 -81 -33q-47 0 -81 33q-33 34 -33 81z" />
<glyph unicode="&#xf8;" horiz-adv-x="800" d="M76 296q0 -106 63 -192l-33 -72l105 -47l17 37q79 -50 172 -50q134 0 229 95t95 229v501q0 105 -62 190l32 69l-105 47l-15 -33q-80 51 -174 51q-134 0 -229 -95t-95 -229v-501zM306 476v321q0 94 94 94q47 0 76 -39zM326 239l168 374v-317q0 -94 -94 -94q-46 0 -74 37z " />
<glyph unicode="&#xf9;" horiz-adv-x="795" d="M76 294q0 -133 94 -227.5t228 -94.5q133 0 227 94.5t94 227.5v799h-229v-799q-11 -93 -92 -93q-84 0 -94 93v799h-228v-799zM237 1296l140 140l126 -183l-83 -84z" />
<glyph unicode="&#xfa;" horiz-adv-x="795" d="M76 294q0 -133 94 -227.5t228 -94.5q133 0 227 94.5t94 227.5v799h-229v-799q-11 -93 -92 -93q-84 0 -94 93v799h-228v-799zM297 1253l127 183l139 -140l-183 -127z" />
<glyph unicode="&#xfb;" horiz-adv-x="795" d="M76 294q0 -133 94 -227.5t228 -94.5q133 0 227 94.5t94 227.5v799h-229v-799q-11 -93 -92 -93q-84 0 -94 93v799h-228v-799zM166 1169h150l82 73l81 -73h150l-153 217h-157z" />
<glyph unicode="&#xfc;" horiz-adv-x="795" d="M52 1282q0 114 113 114t113 -114q0 -113 -113 -113t-113 113zM76 294q0 -133 94 -227.5t228 -94.5q133 0 227 94.5t94 227.5v799h-229v-799q-11 -93 -92 -93q-84 0 -94 93v799h-228v-799zM505 1282q0 114 113 114t113 -114q0 -113 -113 -113t-113 113z" />
<glyph unicode="&#xfd;" horiz-adv-x="713" d="M10 1094l244 -1080l-57 -315h225l281 1395h-255l-87 -635l-96 635h-255zM270 1252l127 183l139 -140l-183 -127z" />
<glyph unicode="&#xfe;" horiz-adv-x="751" d="M76 -320h227v306q46 -14 97 -14q135 0 230 95t95 229v502q0 135 -95 229.5t-230 94.5q-51 0 -97 -14v320h-227v-1748zM303 316v477h3v5q0 39 28 66.5t66 27.5q87 0 94 -94v-502q-13 -93 -94 -93q-38 0 -66 27t-28 66v20h-3z" />
<glyph unicode="&#xff;" horiz-adv-x="713" d="M10 1094l244 -1080l-57 -315h225l281 1395h-255l-87 -635l-96 635h-255zM65 1282q0 114 113 114t113 -114q0 -113 -113 -113t-113 113zM428 1282q0 114 113 114t113 -114q0 -113 -113 -113t-113 113z" />
<glyph unicode="&#x152;" horiz-adv-x="1060" d="M76 316q1 -143 101.5 -243.5t243.5 -100.5q75 0 139 28h490v226h-286l2 374h284v227h-284l-2 374h286v227h-481q-68 32 -148 32q-143 0 -243.5 -101t-101.5 -244v-799zM306 315v800q0 48 34 81.5t81 33.5q48 0 81.5 -34t33.5 -81v-800q-1 -48 -35 -81t-80 -33 q-47 0 -81 33.5t-34 80.5z" />
<glyph unicode="&#x153;" horiz-adv-x="1222" d="M76 297q0 -135 95.5 -230t229.5 -95q121 0 210 78q90 -78 211 -78q134 0 229 95t95 228v21h-230v-21q0 -38 -27.5 -65.5t-66.5 -27.5q-53 0 -73 27.5t-21 65.5v137h418v365q0 134 -95 228.5t-229 94.5q-121 0 -210 -77q-89 79 -211 79q-134 0 -229.5 -95t-95.5 -230v-500 zM306 297v500q14 95 95 95q80 0 94 -95v-500q-9 -95 -94 -95q-81 0 -95 95zM728 663v134q0 38 27.5 66t66.5 28t66.5 -28t27.5 -66v-134h-188z" />
<glyph unicode="&#x178;" horiz-adv-x="702" d="M10 1428l227 -833v-595h228v595l227 833h-227l-114 -497l-114 497h-227zM14 1619q0 114 113 114t113 -114q0 -113 -113 -113t-113 113zM467 1619q0 114 113 114t113 -114q0 -113 -113 -113t-113 113z" />
<glyph unicode="&#x2000;" horiz-adv-x="887" />
<glyph unicode="&#x2001;" horiz-adv-x="1775" />
<glyph unicode="&#x2002;" horiz-adv-x="887" />
<glyph unicode="&#x2003;" horiz-adv-x="1775" />
<glyph unicode="&#x2004;" horiz-adv-x="591" />
<glyph unicode="&#x2005;" horiz-adv-x="443" />
<glyph unicode="&#x2006;" horiz-adv-x="295" />
<glyph unicode="&#x2007;" horiz-adv-x="295" />
<glyph unicode="&#x2008;" horiz-adv-x="221" />
<glyph unicode="&#x2009;" horiz-adv-x="355" />
<glyph unicode="&#x200a;" horiz-adv-x="98" />
<glyph unicode="&#x2010;" horiz-adv-x="670" d="M102 532v214h486v-214h-486z" />
<glyph unicode="&#x2011;" horiz-adv-x="670" d="M102 532v214h486v-214h-486z" />
<glyph unicode="&#x2012;" horiz-adv-x="670" d="M102 532v214h486v-214h-486z" />
<glyph unicode="&#x2013;" horiz-adv-x="1208" d="M102 532v214h1024v-214h-1024z" />
<glyph unicode="&#x2014;" horiz-adv-x="2232" d="M102 532v214h2048v-214h-2048z" />
<glyph unicode="&#x2018;" horiz-adv-x="242" d="M40 1250q0 74 50.5 114t101.5 42v-22q-44 -4 -61.5 -61t35.5 -60h36v-108h-75q-47 1 -67 31.5t-20 63.5z" />
<glyph unicode="&#x2019;" horiz-adv-x="242" d="M40 1298v108h75q47 -1 67 -31.5t20 -63.5q0 -74 -50.5 -114t-101.5 -42v22q44 4 61.5 61t-35.5 60h-36z" />
<glyph unicode="&#x201c;" horiz-adv-x="475" d="M10 1507h199v-268h-159zM236 1507h199v-268h-159z" />
<glyph unicode="&#x201d;" horiz-adv-x="440" d="M10 1239v268h199l-40 -268h-159zM236 1239v268h199l-40 -268h-159z" />
<glyph unicode="&#x202f;" horiz-adv-x="355" />
<glyph unicode="&#x205f;" horiz-adv-x="443" />
<glyph unicode="&#x20ac;" horiz-adv-x="834" d="M0 588h132v-274q0 -142 100.5 -242.5t242.5 -100.5t242.5 100.5t100.5 242.5h-229q0 -114 -114 -114t-114 114v274h270l24 108h-294v108h270l24 108h-294v199q0 114 114 114t114 -114h229q0 142 -100.5 242.5t-242.5 100.5t-242.5 -100.5t-100.5 -242.5v-199h-132v-108 h132v-108h-132v-108z" />
<glyph unicode="&#x25fc;" horiz-adv-x="1095" d="M0 0v1095h1095v-1095h-1095z" />
</font>
</defs>
</svg>
