<?xml version="1.0" encoding="UTF-8"?>
<svg width="86px" height="86px" viewBox="0 0 86 86" version="1.1" xmlns="http://www.w3.org/2000/svg" xmlns:xlink="http://www.w3.org/1999/xlink">
    <!-- Generator: Sketch 51.1 (57501) - http://www.bohemiancoding.com/sketch -->
    <title>Group 6</title>
    <desc>Created with Sketch.</desc>
    <defs></defs>
    <g id="Page-1" stroke="none" stroke-width="1" fill="none" fill-rule="evenodd">
        <g id="Group-6">
            <g id="Group-3" fill-rule="nonzero">
                <g id="Group-5">
                    <circle id="Oval-2-Copy" fill="#FFFFFF" cx="43" cy="43" r="43"></circle>
                    <path d="M66.8503,24.03496 L66.8503,53.981074 C66.8503,56.627152 64.69612,58.781074 62.0503,58.781074 L52.048054,58.781074 L52.702234,63.03496 L53.57824,63.03496 C54.56818,63.03496 55.37824,63.838846 55.37824,64.83496 C55.37824,65.831308 54.56818,66.63496 53.57824,66.63496 L32.42206,66.63496 C31.43212,66.63496 30.62206,65.831308 30.62206,64.83496 C30.62206,63.838846 31.43212,63.03496 32.42206,63.03496 L33.29806,63.03496 L33.95224,58.781074 L23.9503,58.781074 C21.30424,58.781074 19.1503,56.627152 19.1503,53.981074 L19.1503,24.03496 C19.1503,21.38914 21.30424,19.23496 23.9503,19.23496 L62.0503,19.23496 C64.69612,19.23496 66.8503,21.38914 66.8503,24.03496 Z M63.2503,53.981074 L63.2503,49.114846 L43.0003,49.114846 L22.7503,49.114846 L22.7503,53.981074 C22.7503,54.629086 23.29612,55.181074 23.9503,55.181074 L43.0003,55.181074 L62.0503,55.181074 C62.704234,55.181074 63.2503,54.629086 63.2503,53.981074 Z M63.2503,45.514852 L63.2503,24.034966 C63.2503,23.3869 62.704234,22.834966 62.0503,22.834966 L45.04024,22.834966 L23.9503,22.834966 C23.29612,22.834966 22.7503,23.3869 22.7503,24.034966 L22.7503,45.514852 L30.28606,45.514846 L27.78412,44.76514 C27.02206,44.5369 26.500306,43.834966 26.500306,43.0369 L26.500306,38.95702 C26.500306,38.158972 27.022066,37.462918 27.78412,37.229092 L31.09024,36.238858 C31.1263,36.136906 31.16818,36.04114 31.21624,35.938858 L29.57824,32.896966 C29.2003,32.201218 29.3263,31.336906 29.89024,30.772978 L32.7763,27.886906 C33.34024,27.322978 34.20424,27.196966 34.9003,27.574912 L37.942174,29.212918 C38.04418,29.165146 38.140234,29.129092 38.242174,29.086906 L39.232114,25.781086 C39.460054,25.018726 40.162294,24.496966 40.960054,24.496966 L45.040234,24.496966 C45.838294,24.496966 46.540234,25.018726 46.768174,25.781086 L47.758114,29.086906 C47.860054,29.129092 47.956174,29.165146 48.05812,29.212918 L51.1003,27.574912 C51.79612,27.196966 52.666234,27.329092 53.22406,27.886906 L56.11006,30.779386 C56.67406,31.342786 56.800306,32.20702 56.42206,32.903446 L54.79024,35.945032 C54.832114,36.041146 54.874054,36.142786 54.910054,36.238864 L58.216234,37.229098 C58.978234,37.462924 59.5003,38.158978 59.5003,38.957026 L59.5003,43.036906 C59.5003,43.834972 58.97824,44.536906 58.216234,44.765146 L55.7143,45.514852 L63.2503,45.514852 Z M55.9003,41.698906 L55.9003,40.29502 L53.00812,39.4249 C52.432114,39.257008 51.982114,38.812906 51.80812,38.242774 C51.64612,37.727146 51.43606,37.21678 51.17824,36.7249 C50.89612,36.196954 50.902234,35.560954 51.18412,35.038846 L52.618186,32.3749 L51.622066,31.379374 L48.958126,32.812906 C48.43018,33.095014 47.800306,33.101206 47.272066,32.818708 C46.780186,32.566774 46.270126,32.351206 45.754246,32.189134 C45.184126,32.014834 44.740246,31.565128 44.572066,30.989134 L43.702246,28.096948 L42.298066,28.096948 L41.428246,30.989134 C41.260066,31.565128 40.810066,32.014834 40.240246,32.189134 C39.730186,32.3512 39.220126,32.566768 38.728246,32.824894 C38.200306,33.1012 37.564306,33.095014 37.036066,32.8129 L34.372072,31.379368 L33.382132,32.374894 L34.816252,35.03302 C35.098072,35.560948 35.104252,36.190834 34.822072,36.724894 C34.564312,37.216768 34.354252,37.72714 34.192192,38.242768 C34.012312,38.812906 33.562312,39.257008 32.992192,39.424894 L30.100318,40.295014 L30.100318,41.6989 L32.992192,42.568708 C33.562312,42.736888 34.012312,43.186888 34.192192,43.757008 C34.354252,44.260948 34.564312,44.771008 34.822072,45.262906 C34.864312,45.346954 34.894192,45.431308 34.918186,45.51484 L38.290246,45.51484 C37.162306,44.338846 36.466246,42.748906 36.466246,40.996948 C36.466246,37.396948 39.400312,34.4629 43.000312,34.4629 C46.600312,34.4629 49.534126,37.396948 49.534126,40.996948 C49.534126,42.7489 48.832126,44.33884 47.710066,45.51484 L51.076306,45.51484 C51.106186,45.431308 51.136072,45.353434 51.172072,45.268708 C51.430186,44.777146 51.646132,44.266774 51.808132,43.757008 C51.982126,43.186888 52.432126,42.736888 53.008132,42.568708 L55.9003,41.698906 Z M49.06006,63.03496 L48.400306,58.781074 L37.594186,58.781074 L36.940246,63.03496 L49.06006,63.03496 Z M45.93412,40.996954 C45.93412,39.383026 44.6143,38.062906 43.000306,38.062906 C41.380186,38.062906 40.06624,39.383026 40.06624,40.996954 C40.06624,42.61678 41.38018,43.931308 43.000306,43.931308 C44.6143,43.931314 45.93412,42.61678 45.93412,40.996954 Z" id="Shape" fill="#000000"></path>
                    <path d="M63.2503,24.03496 L63.2503,45.51484 L55.7143,45.51484 L58.216234,44.765134 C58.978234,44.536894 59.5003,43.83496 59.5003,43.036894 L59.5003,38.957014 C59.5003,38.158966 58.97824,37.462912 58.216234,37.229086 L54.910054,36.238852 C54.874054,36.142774 54.832114,36.041134 54.79024,35.94502 L56.42206,32.903434 C56.8003,32.207008 56.67406,31.342774 56.11006,30.779374 L53.22406,27.886894 C52.66624,27.32908 51.79612,27.196954 51.1003,27.5749 L48.05812,29.212906 C47.956174,29.165134 47.860054,29.12908 47.758114,29.086894 L46.768174,25.781074 C46.540234,25.018714 45.838294,24.496954 45.040234,24.496954 L45.040234,22.83496 L62.0503,22.83496 C62.704234,22.83496 63.2503,23.386894 63.2503,24.03496 Z" id="Shape" fill="#F5F5F5"></path>
                    <path d="M55.9003,40.29502 L55.9003,41.698906 L53.00812,42.568714 C52.432114,42.736894 51.982114,43.186894 51.80812,43.757014 C51.64612,44.26678 51.430174,44.777152 51.17206,45.268714 C51.13606,45.353434 51.10618,45.431314 51.076294,45.514846 L47.710054,45.514846 C48.832114,44.338852 49.534114,42.748912 49.534114,40.996954 C49.534114,37.396954 46.6003,34.462906 43.0003,34.462906 C39.4003,34.462906 36.466234,37.396954 36.466234,40.996954 C36.466234,42.748906 37.162294,44.338846 38.290234,45.514846 L34.918174,45.514846 C34.89418,45.431314 34.864294,45.346954 34.82206,45.262912 C34.5643,44.77102 34.35424,44.26096 34.19218,43.757014 C34.0123,43.186894 33.5623,42.736894 32.99218,42.568714 L30.100306,41.698906 L30.100306,40.29502 L32.99218,39.4249 C33.5623,39.257008 34.0123,38.812906 34.19218,38.242774 C34.35424,37.727146 34.5643,37.21678 34.82206,36.7249 C35.10424,36.190834 35.09806,35.560954 34.81624,35.033026 L33.38212,32.3749 L34.37206,31.379374 L37.036054,32.812906 C37.564294,33.095014 38.2003,33.101206 38.728234,32.8249 C39.220114,32.566774 39.730174,32.351206 40.240234,32.18914 C40.810054,32.01484 41.260054,31.565134 41.428234,30.98914 L42.298054,28.096954 L43.702234,28.096954 L44.572054,30.98914 C44.740234,31.565134 45.184114,32.01484 45.754234,32.18914 C46.270114,32.351206 46.780174,32.566774 47.272054,32.818714 C47.800294,33.101212 48.430168,33.09502 48.958114,32.812912 L51.622054,31.37938 L52.618174,32.374906 L51.184108,35.038852 C50.902228,35.56096 50.896108,36.19696 51.178228,36.724906 C51.436048,37.21678 51.646108,37.727152 51.808108,38.24278 C51.982102,38.812918 52.432102,39.25702 53.008108,39.424906 L55.9003,40.29502 Z" id="Shape" fill="#FFFFFF"></path>
                    <polygon id="Shape" fill="#F5F5F5" points="48.4003 58.781074 49.06006 63.03496 36.94024 63.03496 37.59418 58.781074"></polygon>
                    <path d="M43.0003,38.062906 C44.614294,38.062906 45.934114,39.383026 45.934114,40.996954 C45.934114,42.61678 44.614294,43.931308 43.0003,43.931308 C41.38018,43.931308 40.066234,42.616774 40.066234,40.996954 C40.06624,39.383026 41.38018,38.062906 43.0003,38.062906 Z" id="Shape" fill="#F5F5F5"></path>
                    <path d="M44.27206,50.872966 C44.60812,51.208966 44.8003,51.677146 44.8003,52.14502 C44.8003,52.618714 44.60812,53.086894 44.27206,53.422966 C43.936054,53.753434 43.47406,53.94502 43.0003,53.94502 C42.5263,53.94502 42.064294,53.753434 41.72824,53.422966 C41.39218,53.086894 41.2003,52.618714 41.2003,52.14502 C41.2003,51.677146 41.392174,51.208966 41.72824,50.872966 C42.05812,50.536894 42.5263,50.3749 43.0003,50.3749 C43.46818,50.3749 43.93606,50.536894 44.27206,50.872966 Z" id="Shape" fill="#000000"></path>
                    <path d="M44.27206,53.422966 C44.60812,53.086894 44.8003,52.618714 44.8003,52.14502 C44.8003,51.677146 44.60812,51.208966 44.27206,50.872966 C43.936054,50.536894 43.468174,50.3749 43.0003,50.3749 L43.0003,49.11484 L63.2503,49.11484 L63.2503,53.981068 C63.2503,54.62908 62.704234,55.181068 62.0503,55.181068 L43.0003,55.181068 L43.0003,53.945014 C43.47406,53.94502 43.93606,53.753434 44.27206,53.422966 Z" id="Shape" fill="#F5F5F5"></path>
                    <path d="M43.0003,55.181074 L23.9503,55.181074 C23.29612,55.181074 22.7503,54.629086 22.7503,53.981074 L22.7503,49.114846 L43.0003,49.114846 L43.0003,50.374906 C42.5263,50.374906 42.05812,50.5369 41.72824,50.872972 C41.39218,51.208972 41.2003,51.677152 41.2003,52.145026 C41.2003,52.61872 41.392174,53.0869 41.72824,53.422972 C42.0643,53.75344 42.5263,53.945026 43.0003,53.945026 L43.0003,55.181074 Z" id="Shape" fill="#F5F5F5"></path>
                    <path d="M40.96006,24.496954 C40.1623,24.496954 39.46006,25.018714 39.23212,25.781074 L38.24218,29.086894 C38.14024,29.12908 38.044186,29.165134 37.94218,29.212906 L34.900306,27.5749 C34.204246,27.196954 33.34024,27.322966 32.776306,27.886894 L29.890246,30.772966 C29.326306,31.336894 29.200312,32.201206 29.578246,32.896954 L31.216246,35.938846 C31.168186,36.041128 31.126312,36.136894 31.090246,36.238846 L27.784126,37.22908 C27.022066,37.462906 26.500312,38.15896 26.500312,38.957008 L26.500312,43.036888 C26.500312,43.834954 27.022072,44.536888 27.784126,44.765128 L30.286066,45.514834 L22.7503,45.514834 L22.7503,24.034954 C22.7503,23.386888 23.29612,22.834954 23.9503,22.834954 L45.040234,22.834954 L45.040234,24.496948 L40.96006,24.496948 L40.96006,24.496954 Z" id="Shape" fill="#F5F5F5"></path>
                </g>
            </g>
            <g id="Coding" transform="translate(19.000000, 19.000000)">
                <g id="Group"></g>
            </g>
        </g>
    </g>
</svg>