<?xml version="1.0" encoding="UTF-8"?>
<svg width="86px" height="86px" viewBox="0 0 86 86" version="1.1" xmlns="http://www.w3.org/2000/svg" xmlns:xlink="http://www.w3.org/1999/xlink">
    <!-- Generator: Sketch 51.1 (57501) - http://www.bohemiancoding.com/sketch -->
    <title>Group 4</title>
    <desc>Created with Sketch.</desc>
    <defs></defs>
    <g id="Page-1" stroke="none" stroke-width="1" fill="none" fill-rule="evenodd">
        <g id="Group-4">
            <g id="Group-2" fill-rule="nonzero">
                <circle id="Oval-2" fill="#FFFFFF" cx="43" cy="43" r="43"></circle>
                <path d="M63.88606,19.8160247 L63.880174,24.854858 C63.880174,25.8591765 63.076294,26.6696728 62.080174,26.6696728 L60.9643,26.6696728 C59.920114,31.8539333 56.692174,36.2397358 52.3003,38.8289986 L56.884114,47.4130667 C57.262288,48.120784 57.130174,48.9918346 56.572054,49.560779 C54.076288,52.0770802 51.796114,54.8539949 50.542174,56.7957863 L50.866234,56.7957863 C51.862294,56.7957863 52.666234,57.606337 52.666234,58.6106011 L52.666234,64.5814568 C52.666234,65.5854184 51.862294,66.3962716 50.866234,66.3962716 L35.4763,66.3962716 C34.48018,66.3962716 33.6763,65.5854184 33.6763,64.5814568 L33.6763,58.6106011 C33.6763,57.606337 34.48018,56.7957863 35.4763,56.7957863 L35.8003,56.7957863 C34.54612,54.8539949 32.260054,52.0770802 29.77012,49.560779 C29.20618,48.9918346 29.08018,48.120784 29.45812,47.4130667 L34.04218,38.8289986 C29.644186,36.2397419 26.42206,31.8539394 25.37824,26.6696728 L23.9143,26.6696728 C23.44024,26.6696728 22.97824,26.482142 22.64218,26.1374481 C22.30618,25.7986222 22.1143,25.3389901 22.1143,24.854858 L22.1143,19.8160247 C22.1143,18.8117062 22.92406,18.0012099 23.9143,18.0012099 L28.91818,18.0012099 C29.39806,18.0012099 29.85424,18.1884383 30.19024,18.5334346 C30.53212,18.871958 30.71818,19.3318926 30.71818,19.8160247 L30.71818,24.854858 C30.71818,25.8045506 29.99218,26.5789986 29.06818,26.6575741 C30.03412,30.4626963 32.476306,33.6811494 35.746126,35.6409679 L40.066246,27.540784 C40.384126,26.9541753 40.990246,26.5911519 41.656186,26.5911519 L44.686066,26.5911519 C45.346132,26.5911519 45.958126,26.9541814 46.270132,27.540784 L50.596132,35.6409679 C53.860072,33.6811494 56.296132,30.4685642 57.268192,26.6696728 L57.082132,26.6696728 C56.602252,26.6696728 56.146132,26.482142 55.810072,26.1374481 C55.468198,25.7986222 55.282132,25.3389901 55.282132,24.854858 L55.282132,19.8160247 C55.282132,18.8117062 56.086072,18.0012099 57.082132,18.0012099 L62.086072,18.0012099 C62.560066,18.0012099 63.022072,18.1884383 63.358132,18.5334346 C63.69418,18.871958 63.88606,19.3318926 63.88606,19.8160247 Z M60.28606,23.0400432 L60.28606,21.6308395 L58.88212,21.6308395 L58.88212,23.0400432 L60.28606,23.0400432 Z M53.08606,47.9574506 L44.96818,32.7613407 L44.96818,41.2972073 C46.3123,41.9686222 47.24218,43.3660357 47.24218,44.9812209 C47.24218,47.243811 45.41818,49.0887517 43.16818,49.0887517 C40.92406,49.0887517 39.094186,47.243811 39.094186,44.9812209 C39.094186,43.3660357 40.024066,41.9686283 41.36818,41.2972073 L41.36818,32.7613407 L33.25618,47.9574506 C35.2123,50.0203506 38.55424,53.7891221 39.8623,56.7957863 L46.47406,56.7957863 C47.7883,53.7891221 51.130174,50.0203506 53.08606,47.9574506 Z M49.06624,62.766642 L49.06624,60.4254159 L37.2763,60.4254159 L37.2763,62.766642 L49.06624,62.766642 Z M44.1643,44.9812148 C44.1643,44.4246716 43.72012,43.9651 43.16818,43.9651 C42.628246,43.9651 42.172066,44.4246716 42.172066,44.9812148 C42.172066,45.5317691 42.628246,45.9914012 43.16818,45.9914012 C43.72012,45.9914012 44.1643,45.5317691 44.1643,44.9812148 Z M27.11818,23.0400432 L27.11818,21.6308395 L25.7143,21.6308395 L25.7143,23.0400432 L27.11818,23.0400432 Z" id="Shape" fill="#000000"></path>
                <path d="M44.96818,32.7613407 L53.086066,47.9574506 C51.13018,50.0203506 47.7883,53.7891221 46.474066,56.7957863 L39.862306,56.7957863 C38.554246,53.7891221 35.212306,50.0203567 33.256186,47.9574506 L41.368186,32.7613407 L41.368186,41.2972073 C40.024066,41.9686222 39.094192,43.3660357 39.094192,44.9812209 C39.094192,47.243811 40.924072,49.0887517 43.168186,49.0887517 C45.418186,49.0887517 47.242186,47.243811 47.242186,44.9812209 C47.242186,43.3660357 46.312306,41.9686283 44.968186,41.2972073 L44.968186,32.7613407 L44.96818,32.7613407 Z" id="Shape" fill="#F5F5F5"></path>
                <rect id="Rectangle-path" fill="#F5F5F5" x="37.2763" y="60.4254159" width="11.78994" height="2.3412321"></rect>
                <path d="M43.16818,43.9651 C43.720126,43.9651 44.1643,44.4246716 44.1643,44.9812148 C44.1643,45.5317691 43.72012,45.9914012 43.16818,45.9914012 C42.628246,45.9914012 42.172066,45.5317691 42.172066,44.9812148 C42.17206,44.4246716 42.62824,43.9651 43.16818,43.9651 Z" id="Shape" fill="#FFFFFF"></path>
            </g>
            <g id="Vector" transform="translate(22.000000, 18.000000)">
                <g id="XMLID_3_">
                    <g id="Group"></g>
                </g>
            </g>
        </g>
    </g>
</svg>